<?xml version="1.0" encoding="utf-8"?>
<!-- Generator: Adobe Illustrator 20.1.0, SVG Export Plug-In . SVG Version: 6.00 Build 0)  -->
<svg version="1.1" id="Layer_1" xmlns="http://www.w3.org/2000/svg" xmlns:xlink="http://www.w3.org/1999/xlink" x="0px" y="0px"
	 width="800px" height="170px" viewBox="0 0 800 170" enable-background="new 0 0 800 170" xml:space="preserve">
<title>portswigger-logo</title>
<g>
	<g>
		<path fill="#404041" d="M187.4,73H169v32.5c-0.1,2.5-2.1,4.6-4.7,4.6c-2.5,0-4.6-2.1-4.6-4.6V22.4c-0.1-1.3,0.4-2.6,1.3-3.6
			c0.8-0.9,2-1.5,3.3-1.4h23.1c15.4,0,27.8,12.5,27.8,27.8S202.8,73,187.4,73z M187.4,26.7H169v37.1h18.4c10.2,0,18.5-8.3,18.5-18.5
			S197.7,26.7,187.4,26.7z"/>
		<path fill="#404041" d="M249.3,110.1c-14,0-27.7-9-27.7-23.2V40.7c0-14,13.8-23.2,27.7-23.2S277,26.7,277,40.7v46.2
			C277,101.1,263.2,110.1,249.3,110.1z M267.7,40.5c0-9-9.5-13.9-18.4-13.9s-18.4,4.9-18.4,13.9v46.2c0,9.2,9.5,13.9,18.4,13.9
			c9,0,18.4-4.7,18.4-13.9C267.7,86.8,267.7,40.5,267.7,40.5z"/>
		<path fill="#404041" d="M321.4,71.7l17.4,31.3c1.5,2.8-1,7.1-4,7.1c-1.7,0.1-3.3-0.8-4.2-2.2L311.6,73h-18.4v32.5
			c-0.1,2.5-2.1,4.6-4.7,4.6c-2.5,0-4.6-2.1-4.6-4.6V22.4c-0.1-1.3,0.4-2.6,1.3-3.6c0.8-1,2-1.5,3.3-1.4h23.1
			c15.3,0.1,27.7,12.5,27.7,27.8C339.5,57.7,333.1,67.1,321.4,71.7z M311.6,26.7h-18.4v37h18.5c10.2-0.2,18.3-8.7,18.1-19
			C329.5,34.9,321.5,26.9,311.6,26.7L311.6,26.7L311.6,26.7z"/>
		<path fill="#404041" d="M392.5,26.7H374v78.8c0,2.5-2,4.6-4.6,4.6c-2.5,0-4.6-2-4.6-4.6c0,0,0,0,0,0V26.7h-18.7
			c-2.5,0-4.6-2.1-4.6-4.6c0-2.5,2-4.6,4.6-4.7h46.4c2.5,0.1,4.6,2.1,4.6,4.7C397.1,24.6,395.1,26.7,392.5,26.7L392.5,26.7
			L392.5,26.7L392.5,26.7z"/>
		<path fill="#404041" d="M428.3,110.1c-9.9,0.1-15.7-2.1-25.1-5.1c-1.9-0.7-2.6-2.2-2.6-4.2c0-2.6,2.2-4.6,4.7-4.6
			c0.6,0,1.1,0.1,1.7,0.3c2.4,0.8,12.9,4.2,21.4,4.2c9,0.1,18.5-4.9,18.5-13.9c0-4.5-1.8-7.4-5.3-10L410,58.2
			c-8.1-5.8-9.3-11.8-9.3-17.7c0-14,11.8-23.4,27.7-23.2c9.2,0.1,16.1,1.1,23,5.3c1.5,0.8,2.4,2.3,2.4,4c0,4.3-4.6,5.1-6.4,4.5
			c-6.1-2.4-7.2-4.2-19-4.5c-9.3-0.3-18.5,5.1-18.5,13.9c0,4.3,1.8,7.2,5.1,9.9l31.2,18.5c6.4,4.3,10,10,9.9,17.9
			C456,102.2,442.4,110,428.3,110.1z"/>
		<path fill="#404041" d="M525.7,106.9c-0.9,2.5-3.7,3.7-6.2,2.8c-1.3-0.5-2.3-1.5-2.8-2.8l-14-45.9l-14.3,45.8
			c-0.5,1.9-2.2,3.2-4.2,3.2c-2,0.1-3.9-1.2-4.5-3.2L461,22.6c-0.4-2,0.7-4,2.6-4.7c2.5-1.1,5.7,0.1,6.3,2.6L484.8,86l13.6-41.7
			c0.7-2.2,2.1-3.8,4.3-3.8c2.2-0.1,4.2,1.4,4.6,3.6l13.1,41.5l15-65c0.7-2.5,3.3-3.8,5.8-3.1c2.3,0.7,3.6,3,3.2,5.3L525.7,106.9z"
			/>
		<path fill="#404041" d="M555.4,110.1c-2.5,0-4.6-2.1-4.6-4.6V22.1c0-2.5,2-4.6,4.6-4.7c2.6,0.1,4.6,2.1,4.7,4.7v83.4
			C560,108,558,110,555.4,110.1z"/>
		<path fill="#404041" d="M622.4,108.4c-0.9,1.1-2.2,1.7-3.6,1.7h-27.7c-7.5,0-14.5-3.6-17.8-7.5c-2.8-3.2-5.4-9.2-5.4-15.7
			l-0.1-46.2c-0.1-7.4,3.3-14.4,9.2-18.8c4.1-2.9,9.1-4.5,14.2-4.5H619c2.5,0.1,4.6,2.1,4.6,4.7c0,2.5-2.1,4.6-4.6,4.6h-27.8
			c-3.6,0-6.1,0.6-8.9,2.9c-3.8,2.9-5,6.3-5,11v46.2c0,4,0.8,6.7,3.5,9.7c1.8,2.2,6,4.2,10.4,4.2h23v-37h-10.1
			c-2.6,0-4.6-2.1-4.6-4.6s2.1-4.6,4.6-4.6H619c1.2,0,2.4,0.5,3.3,1.4c0.8,0.9,1.3,2,1.3,3.2v46.4
			C623.5,106.5,623.1,107.5,622.4,108.4z"/>
		<path fill="#404041" d="M684.4,108.4c-0.9,1.1-2.2,1.7-3.6,1.7h-27.7c-7.5,0-14.5-3.6-17.8-7.5c-2.8-3.2-5.4-9.2-5.4-15.7
			l-0.1-46.2c-0.1-7.4,3.3-14.4,9.2-18.8c4.1-2.9,9.1-4.5,14.2-4.5h27.7c2.5,0.1,4.6,2.1,4.6,4.7c0,2.5-2.1,4.6-4.6,4.6h-27.7
			c-3.6,0-6.1,0.6-8.9,2.9c-3.8,2.9-5,6.3-5,11v46.2c0,4,0.8,6.7,3.5,9.7c1.8,2.2,6,4.2,10.4,4.2h23v-37H666c-2.6,0-4.6-2.1-4.6-4.6
			s2.1-4.6,4.6-4.6l0,0h14.9c1.2,0,2.4,0.5,3.3,1.4c0.8,0.9,1.3,2,1.3,3.2v46.4C685.4,106.5,685,107.5,684.4,108.4z"/>
		<path fill="#404041" d="M734,110.1h-37.5c-1.2,0.2-2.5-0.3-3.3-1.3c-0.9-0.8-1.4-2.1-1.3-3.3V22.1c0-1.5,0.1-2.6,1.3-3.6
			c0.9-0.8,2.1-1.3,3.3-1.1h37c2.5,0.1,4.6,2.1,4.6,4.7c0,2.5-2.1,4.6-4.6,4.6h-32.2v27.8h27.6c2.6,0,4.7,2,4.7,4.6
			c0,2.6-2,4.7-4.6,4.7h-27.7v37h32.3c2.5,0.1,4.6,2.1,4.6,4.7C738.2,107.9,736.5,110.1,734,110.1z"/>
		<path fill="#404041" d="M782.1,71.7l17.4,31.3c1.5,2.8-1,7.1-4,7.1c-1.7,0.1-3.3-0.8-4.2-2.2l-19-34.9h-18.5v32.5
			c-0.1,2.5-2.1,4.6-4.7,4.6c-2.5,0-4.6-2.1-4.6-4.6V22.4c-0.1-1.3,0.4-2.6,1.3-3.6c0.8-1,2-1.5,3.3-1.4h23.1
			c15.3,0.1,27.7,12.5,27.7,27.8C800.1,57.7,793.7,67.1,782.1,71.7z M772.3,26.7h-18.5v37h18.5c10.2-0.2,18.3-8.7,18.1-19
			C790.1,34.9,782.2,26.9,772.3,26.7L772.3,26.7L772.3,26.7z"/>
	</g>
	<g>
		<path fill="#FF6633" d="M197.1,168.6c-0.2,0.8-1,1.4-1.9,1.3c-0.8,0-1.6-0.5-1.9-1.3l-6.1-20.1l-6.3,20.1c-0.2,0.8-1,1.4-1.8,1.4
			c-0.9,0.1-1.7-0.5-1.9-1.4l-8.2-36.9c-0.2-0.9,0.3-1.8,1.2-2.1c1-0.5,2.1-0.1,2.6,0.9c0,0.1,0.1,0.2,0.1,0.3l6.5,28.7l6-18.2
			c0.2-0.9,1-1.6,1.9-1.6c1-0.1,1.9,0.6,2,1.6l5.7,18.2l6.6-28.5c0.3-1,1.3-1.6,2.3-1.3h0.1c1,0.2,1.7,1.2,1.6,2.3L197.1,168.6z"/>
		<path fill="#FF6633" d="M228.1,170h-16.4c-0.5,0-1.1-0.1-1.5-0.5c-0.4-0.4-0.5-1-0.5-1.5v-36.5c-0.1-0.6,0.1-1.2,0.5-1.6
			c0.4-0.4,1-0.5,1.5-0.5h16.2c1.1,0,2,1,2,2.1c0,1.1-0.9,2-2,2h-14.2v12.2h12.1c1.1,0,2.1,0.9,2.1,2s-0.9,2.1-2,2.1h-12.2v16.1
			h14.2c1.1,0,2,1,2,2.1c0.1,1-0.7,1.9-1.7,2c0,0,0,0,0,0L228.1,170L228.1,170z"/>
		<path fill="#FF6633" d="M248.6,170h-12.2c-0.5,0.1-1.1-0.1-1.5-0.4c-0.4-0.4-0.6-1-0.5-1.6v-36.5c0-0.6,0.2-1.1,0.6-1.5
			c0.4-0.4,0.9-0.6,1.4-0.6h12.2c5.1,0,8.1,5.1,8.1,10.2c0.1,2.7-1,5.4-2.9,7.3c3.6,3,5.2,6.3,4.9,11C258.5,164,254.8,170,248.6,170
			z M248.6,133.6h-10.1v12.2h10.1c2.9,0,4.1-3.2,4.1-6.1S251.5,133.5,248.6,133.6L248.6,133.6z M248.6,149.8h-10.1v16.1h10.1
			c4,0,6.1-4.1,6.1-8.1S252.6,149.8,248.6,149.8L248.6,149.8z"/>
		<path fill="#FF6633" d="M306.2,170c-4.3,0.1-6.9-0.9-11-2.2c-0.8-0.2-1.3-1-1.2-1.8c0-1.1,0.9-2,2-2c0.3,0,0.5,0.1,0.8,0.2
			c3,1.1,6.2,1.7,9.4,1.8c4,0.1,8.1-2.1,8.1-6.1c0-1.8-0.8-3.4-2.3-4.4l-13.9-8.1c-3.5-2.6-4.1-5.2-4.1-7.7
			c0-6.1,5.2-10.2,12.2-10.2c4,0.1,7.1,0.5,10.1,2.3c0.7,0.4,1,1.1,1,1.8c0,1.1-1,2.1-2.1,2c-0.2,0-0.4,0-0.7-0.1
			c-2.7-1-3.2-1.8-8.3-1.9c-4.1-0.1-8.1,2.2-8.1,6.1c0,1.7,0.8,3.3,2.2,4.3l13.7,8.1c2.8,1.9,4.4,4.4,4.3,7.8
			C318.3,166.5,312.3,169.9,306.2,170z"/>
		<path fill="#FF6633" d="M341.1,170h-16.4c-0.5,0-1.1-0.1-1.5-0.5c-0.4-0.4-0.5-1-0.5-1.5v-36.5c-0.1-0.6,0.1-1.2,0.5-1.6
			c0.4-0.4,1-0.5,1.5-0.5H341c1.1,0,2,1,2,2.1c0,1.1-0.9,2-2,2h-14.2v12.2h12.1c1.1,0,2.1,0.9,2.1,2s-0.9,2.1-2,2.1h-12.2v16.1h14.2
			c1.1,0,2,1,2,2.1C343,169,342.2,169.9,341.1,170L341.1,170L341.1,170z"/>
		<path fill="#FF6633" d="M364.7,170h-8.1c-2.9,0.1-5.7-1.1-7.7-3.2c-1.7-1.9-2.6-4.4-2.5-6.9v-20.2c0-3.1,1.3-6,3.6-8
			c1.9-1.4,4.2-2.2,6.6-2.2h8.1c1.1,0,2,1,2,2.1c0,1.1-0.9,2-2,2h-8.1c-1.5-0.1-3,0.5-4.1,1.5c-1.3,1.1-2,2.8-1.9,4.6v20.2
			c-0.1,1.6,0.4,3.1,1.5,4.3c1.2,1.2,2.9,1.9,4.6,1.8h8.1c1.1,0,2,1,2,2.1S365.8,170,364.7,170z"/>
		<path fill="#FF6633" d="M383.2,170c-6.7,0-12.1-5.5-12.2-12.2v-26.3c0-1.1,0.9-2.1,2-2.1c1.1,0,2,1,2.1,2.1v26.3
			c0,4.5,3.6,8.1,8.1,8.1c4.5,0,8.1-3.6,8.1-8.1v-26.3c0-1.1,1-2.1,2.1-2.1c1.1,0,2,1,2,2.1v26.3C395.4,164.5,390,170,383.2,170z"/>
		<path fill="#FF6633" d="M416.6,153.2l7.6,13.7c0.5,1.1,0,2.4-1.1,2.9c-0.2,0.1-0.4,0.2-0.7,0.2c-0.7,0.1-1.5-0.3-1.8-1l-8.3-15.3
			h-8.1v14.2c0,1.1-1,2-2.1,2c-1.1,0-2-0.9-2-2v-36.4c-0.1-0.6,0.1-1.2,0.5-1.6c0.4-0.4,0.9-0.6,1.5-0.6h10.2
			c6.7,0.1,12.1,5.5,12.2,12.2C424.7,146.7,421.5,151.5,416.6,153.2z M412.3,133.5h-8.1v16.2h8.1c4.5,0,8.1-3.6,8.1-8.1
			C420.4,137.1,416.7,133.5,412.3,133.5L412.3,133.5L412.3,133.5z"/>
		<path fill="#FF6633" d="M430.8,170c-1.1,0-2-0.9-2-2v-36.5c0-1.1,0.9-2.1,2-2.1c1.1,0,2,1,2.1,2.1V168
			C432.9,169.1,431.9,170,430.8,170z"/>
		<path fill="#FF6633" d="M460.1,133.5h-8.1V168c0,1.1-0.9,2-2,2s-2-0.9-2-2v-34.5h-8.2c-1.1,0-2-0.9-2-2c0-1.1,0.9-2.1,2-2.1h20.2
			c1.1,0,2,1,2,2.1C462.1,132.6,461.3,133.5,460.1,133.5z"/>
		<path fill="#FF6633" d="M482.9,150.3V168c0,1.1-1,2-2.1,2c-1.1,0-2-0.9-2-2v-17.7l-11.9-17.8c-0.6-0.9-0.4-2.1,0.5-2.8l0,0
			c1-0.6,2.2-0.2,2.8,0.7l10.6,15.7l10.5-15.7c0.7-0.9,1.9-1.2,2.9-0.5c0,0,0,0,0,0l0,0c0.9,0.6,1.2,1.8,0.6,2.7L482.9,150.3z"/>
	</g>
	<polygon fill="#404041" points="66.6,125.9 0,113.1 0,12.9 66.6,0 	"/>
	<polygon fill="#FF6633" points="69.7,125.9 136.4,113.1 136.4,12.9 69.7,0 	"/>
	<path fill="#FFFFFF" d="M101.3,15.2c2.3,0.5,3.4,0.7,5.7,1.1v17.3c-6.7,6.5-10,10-16.7,17.6c6.7,0.3,10,0.4,16.7,0.7V69
		c9.2-0.3,13.8-0.4,22.8-0.7c-8.1,8.2-15.8,16.9-22.8,26v13.5c-2.3,0.5-3.4,0.7-5.7,1.1V93.2c6.7-8.4,10-12.4,16.6-19.7
		c-6.7,0.4-10,0.5-16.7,0.9V56.8l-22.8-0.5C85.5,47.4,93.1,39,101.2,31v-7.2C101.3,20.4,101.3,18.7,101.3,15.2z"/>
</g>
</svg>
